#tb 0: 1/25
0,          0,          0,        1,    38016, 0xb96f1feb
0,          1,          1,        1,    38016, 0x0ff111f0
0,          2,          2,        1,    38016, 0xbac70271
0,          3,          3,        1,    38016, 0x8c361866
0,          4,          4,        1,    38016, 0x9d9640be
0,          5,          5,        1,    38016, 0xd36b563b
0,          6,          6,        1,    38016, 0xe5966f5f
0,          7,          7,        1,    38016, 0xb8b28ab0
0,          8,          8,        1,    38016, 0xf817a3e6
0,          9,          9,        1,    38016, 0xba26acd8
0,         10,         10,        1,    38016, 0x453dba2f
0,         11,         11,        1,    38016, 0xe50bd16e
0,         12,         12,        1,    38016, 0x95c2c1f7
0,         13,         13,        1,    38016, 0xc6a59679
0,         14,         14,        1,    38016, 0x9f468726
0,         15,         15,        1,    38016, 0x371091eb
0,         16,         16,        1,    38016, 0xd499d26b
0,         17,         17,        1,    38016, 0x172fd389
0,         18,         18,        1,    38016, 0x3c04de2a
0,         19,         19,        1,    38016, 0xa461aed2
0,         20,         20,        1,    38016, 0x098cdef2
0,         21,         21,        1,    38016, 0x5d8d9c7d
0,         22,         22,        1,    38016, 0x087db718
0,         23,         23,        1,    38016, 0x064191ef
0,         24,         24,        1,    38016, 0x2f842ef5
0,         25,         25,        1,    38016, 0x2b5b0e77
0,         26,         26,        1,    38016, 0xcc671b7f
0,         27,         27,        1,    38016, 0x859f4f75
0,         28,         28,        1,    38016, 0x132a7a48
0,         29,         29,        1,    38016, 0x6e8987ab
0,         30,         30,        1,    38016, 0x02db8591
0,         31,         31,        1,    38016, 0x30567d9b
0,         32,         32,        1,    38016, 0x92ea3b53
0,         33,         33,        1,    38016, 0xae807c6e
0,         34,         34,        1,    38016, 0xbfbc7458
0,         35,         35,        1,    38016, 0x66294d04
0,         36,         36,        1,    38016, 0xdb2a5f10
0,         37,         37,        1,    38016, 0xb19112fe
0,         38,         38,        1,    38016, 0xdd26490e
0,         39,         39,        1,    38016, 0x51cd31de
0,         40,         40,        1,    38016, 0xf6cc2dad
0,         41,         41,        1,    38016, 0x0c302dfd
0,         42,         42,        1,    38016, 0xb846245d
0,         43,         43,        1,    38016, 0xd61c2e88
0,         44,         44,        1,    38016, 0xf8264117
0,         45,         45,        1,    38016, 0x13862a3d
0,         46,         46,        1,    38016, 0xfb481750
0,         47,         47,        1,    38016, 0x6377e4af
0,         48,         48,        1,    38016, 0x1759c1b4
0,         49,         49,        1,    38016, 0xca03942b
0,         50,         50,        1,    38016, 0x0126810b
0,         51,         51,        1,    38016, 0x3c8c820b
0,         52,         52,        1,    38016, 0x863379ec
0,         53,         53,        1,    38016, 0xaf9b6d52
0,         54,         54,        1,    38016, 0x9ba86946
0,         55,         55,        1,    38016, 0xf97980fb
0,         56,         56,        1,    38016, 0x9cf4785c
0,         57,         57,        1,    38016, 0x51cdcdc7
0,         58,         58,        1,    38016, 0x923de162
0,         59,         59,        1,    38016, 0xdcd3c3cb
0,         60,         60,        1,    38016, 0x6f9fea31
0,         61,         61,        1,    38016, 0x7ab7b133
0,         62,         62,        1,    38016, 0xb8a2c99f
0,         63,         63,        1,    38016, 0x040a99c6
0,         64,         64,        1,    38016, 0xa8c4b28f
0,         65,         65,        1,    38016, 0x4c577509
0,         66,         66,        1,    38016, 0xb30f7277
0,         67,         67,        1,    38016, 0xb5f73b46
0,         68,         68,        1,    38016, 0x723f3ccc
0,         69,         69,        1,    38016, 0x3e4a0cca
0,         70,         70,        1,    38016, 0xe0df386e
0,         71,         71,        1,    38016, 0xc4832c7b
0,         72,         72,        1,    38016, 0x014a2d9f
0,         73,         73,        1,    38016, 0xae4272d9
0,         74,         74,        1,    38016, 0xcde25e0f
0,         75,         75,        1,    38016, 0xdecb13d6
0,         76,         76,        1,    38016, 0x9d8ae5d9
0,         77,         77,        1,    38016, 0x280abccf
0,         78,         78,        1,    38016, 0x885a9fcc
0,         79,         79,        1,    38016, 0x9b328b6f
0,         80,         80,        1,    38016, 0x8fb7663c
0,         81,         81,        1,    38016, 0x35fd4c32
0,         82,         82,        1,    38016, 0xdd484efb
0,         83,         83,        1,    38016, 0xb8f576b1
0,         84,         84,        1,    38016, 0xe8016312
0,         85,         85,        1,    38016, 0x65a88d55
0,         86,         86,        1,    38016, 0x83dca3a9
0,         87,         87,        1,    38016, 0xfc3ba542
0,         88,         88,        1,    38016, 0x3d55ac26
0,         89,         89,        1,    38016, 0xb91f6bbe
0,         90,         90,        1,    38016, 0x67bd2f75
0,         91,         91,        1,    38016, 0x0af12875
0,         92,         92,        1,    38016, 0xc18a2d55
0,         93,         93,        1,    38016, 0x22fd4e01
0,         94,         94,        1,    38016, 0x466b8dcd
0,         95,         95,        1,    38016, 0xfe93c2d9
0,         96,         96,        1,    38016, 0x2cc0e638
0,         97,         97,        1,    38016, 0xbe550d40
0,         98,         98,        1,    38016, 0x65900ffc
0,         99,         99,        1,    38016, 0xcc61228c
0,        100,        100,        1,    38016, 0x8ae34904
0,        101,        101,        1,    38016, 0x74b8411a
0,        102,        102,        1,    38016, 0xae36408d
0,        103,        103,        1,    38016, 0x251429ad
0,        104,        104,        1,    38016, 0x4d8e6dc6
0,        105,        105,        1,    38016, 0x9e07801e
0,        106,        106,        1,    38016, 0x8fdd83ef
0,        107,        107,        1,    38016, 0x976084a1
0,        108,        108,        1,    38016, 0x69f7609f
0,        109,        109,        1,    38016, 0x48971b09
0,        110,        110,        1,    38016, 0x78e63ff4
0,        111,        111,        1,    38016, 0x0852365b
0,        112,        112,        1,    38016, 0x8044232c
0,        113,        113,        1,    38016, 0x9ec3178d
0,        114,        114,        1,    38016, 0x6f260955
0,        115,        115,        1,    38016, 0x903cfe23
0,        116,        116,        1,    38016, 0x441afbe4
0,        117,        117,        1,    38016, 0xe4420313
0,        118,        118,        1,    38016, 0xf86d0c34
0,        119,        119,        1,    38016, 0xafe5f3c3
0,        120,        120,        1,    38016, 0x9f61e43b
0,        121,        121,        1,    38016, 0x9330e186
0,        122,        122,        1,    38016, 0xc900ce86
0,        123,        123,        1,    38016, 0xffd6c4a6
0,        124,        124,        1,    38016, 0xd7b3cd79
0,        125,        125,        1,    38016, 0x8015c914
0,        126,        126,        1,    38016, 0x36d3c884
0,        127,        127,        1,    38016, 0x2981db44
0,        128,        128,        1,    38016, 0x94f40162
0,        129,        129,        1,    38016, 0x091022c5
0,        130,        130,        1,    38016, 0xd554203f
0,        131,        131,        1,    38016, 0xdcf26c7e
0,        132,        132,        1,    38016, 0xdc398ff4
0,        133,        133,        1,    38016, 0xeb5ca01c
0,        134,        134,        1,    38016, 0x4931c311
0,        135,        135,        1,    38016, 0x0ddabf2a
0,        136,        136,        1,    38016, 0x2432a265
0,        137,        137,        1,    38016, 0x65409b4f
0,        138,        138,        1,    38016, 0x466e6957
0,        139,        139,        1,    38016, 0x82a08bb4
0,        140,        140,        1,    38016, 0xdb6a35c4
0,        141,        141,        1,    38016, 0xda5b0d28
0,        142,        142,        1,    38016, 0x2be76f6d
0,        143,        143,        1,    38016, 0x7587a456
0,        144,        144,        1,    38016, 0x69994004
0,        145,        145,        1,    38016, 0xaefd46ec
0,        146,        146,        1,    38016, 0x88094d53
0,        147,        147,        1,    38016, 0xfcb82a4c
0,        148,        148,        1,    38016, 0x2877c850
0,        149,        149,        1,    38016, 0x327f5e88
0,        150,        150,        1,    38016, 0xaa1c4a3f
0,        151,        151,        1,    38016, 0x1950dfbd
0,        152,        152,        1,    38016, 0x8580b472
0,        153,        153,        1,    38016, 0xb5ef90c0
0,        154,        154,        1,    38016, 0x0906b3e7
0,        155,        155,        1,    38016, 0x026b12fa
0,        156,        156,        1,    38016, 0xe8ef556a
0,        157,        157,        1,    38016, 0x2e1afe7f
0,        158,        158,        1,    38016, 0xef2ad28a
0,        159,        159,        1,    38016, 0xe6d7d947
0,        160,        160,        1,    38016, 0x25ebd549
0,        161,        161,        1,    38016, 0xc443f3cf
0,        162,        162,        1,    38016, 0x9dc7dcad
0,        163,        163,        1,    38016, 0x8b7ce835
0,        164,        164,        1,    38016, 0x27a3e48b
0,        165,        165,        1,    38016, 0x0b6bc8a9
0,        166,        166,        1,    38016, 0xdb98d21e
0,        167,        167,        1,    38016, 0x4cb89812
0,        168,        168,        1,    38016, 0x41f35c5e
0,        169,        169,        1,    38016, 0xfd764d91
0,        170,        170,        1,    38016, 0xb7cc313f
0,        171,        171,        1,    38016, 0x51ba22d1
0,        172,        172,        1,    38016, 0x00d8deee
0,        173,        173,        1,    38016, 0x50db806a
0,        174,        174,        1,    38016, 0xbf022623
0,        175,        175,        1,    38016, 0xf2fe22ba
0,        176,        176,        1,    38016, 0x7055191b
0,        177,        177,        1,    38016, 0xbefb8590
0,        178,        178,        1,    38016, 0x90e59103
0,        179,        179,        1,    38016, 0x61d443da
0,        180,        180,        1,    38016, 0x6ad0e637
0,        181,        181,        1,    38016, 0xda39f9c1
0,        182,        182,        1,    38016, 0x03408181
0,        183,        183,        1,    38016, 0xee973480
0,        184,        184,        1,    38016, 0x9674d65d
0,        185,        185,        1,    38016, 0x1fdd5529
0,        186,        186,        1,    38016, 0x51a219bb
0,        187,        187,        1,    38016, 0x9cd9747e
0,        188,        188,        1,    38016, 0xa58a3c33
0,        189,        189,        1,    38016, 0xdf1905a9
0,        190,        190,        1,    38016, 0x44a52c69
0,        191,        191,        1,    38016, 0x0cf6e56b
0,        192,        192,        1,    38016, 0xe2115e06
0,        193,        193,        1,    38016, 0x15efa840
0,        194,        194,        1,    38016, 0x0811bad8
0,        195,        195,        1,    38016, 0x8240a91d
0,        196,        196,        1,    38016, 0xdfe46b7d
0,        197,        197,        1,    38016, 0xcead819a
0,        198,        198,        1,    38016, 0xe8f87d91
0,        199,        199,        1,    38016, 0x951ebd82
0,        200,        200,        1,    38016, 0x37d98ecb
0,        201,        201,        1,    38016, 0x54fb54da
0,        202,        202,        1,    38016, 0xb306302e
0,        203,        203,        1,    38016, 0xa8acd0dc
0,        204,        204,        1,    38016, 0x68e43757
0,        205,        205,        1,    38016, 0x7018cd48
0,        206,        206,        1,    38016, 0x1c34824e
0,        207,        207,        1,    38016, 0x22e7e478
0,        208,        208,        1,    38016, 0x534a0470
0,        209,        209,        1,    38016, 0x1a65bc45
0,        210,        210,        1,    38016, 0x5e78223b
0,        211,        211,        1,    38016, 0xc3c9c912
0,        212,        212,        1,    38016, 0x52557c74
0,        213,        213,        1,    38016, 0xf5ff1f9a
0,        214,        214,        1,    38016, 0x56afe047
0,        215,        215,        1,    38016, 0x50259235
0,        216,        216,        1,    38016, 0xca19311d
0,        217,        217,        1,    38016, 0xd96eeb53
0,        218,        218,        1,    38016, 0x21a218b7
0,        219,        219,        1,    38016, 0x24162395
0,        220,        220,        1,    38016, 0xadf9b983
0,        221,        221,        1,    38016, 0x68443df2
0,        222,        222,        1,    38016, 0xa970df8a
0,        223,        223,        1,    38016, 0x8381bbee
0,        224,        224,        1,    38016, 0x36fe1d22
0,        225,        225,        1,    38016, 0xa0326ddf
0,        226,        226,        1,    38016, 0x01dc7ca7
0,        227,        227,        1,    38016, 0xf485d505
0,        228,        228,        1,    38016, 0xb5a8fe68
0,        229,        229,        1,    38016, 0x6385f303
0,        230,        230,        1,    38016, 0x4d099ef1
0,        231,        231,        1,    38016, 0xeaa54d25
0,        232,        232,        1,    38016, 0x5c32c503
0,        233,        233,        1,    38016, 0xd52538b3
0,        234,        234,        1,    38016, 0x1ca2e4c2
0,        235,        235,        1,    38016, 0xe3a95b82
0,        236,        236,        1,    38016, 0x14393895
0,        237,        237,        1,    38016, 0xd77cef50
0,        238,        238,        1,    38016, 0x47b901b8
0,        239,        239,        1,    38016, 0x14d70226
0,        240,        240,        1,    38016, 0xab32b360
0,        241,        241,        1,    38016, 0xb92d3090
0,        242,        242,        1,    38016, 0xbd50ae43
0,        243,        243,        1,    38016, 0x5ea8d59a
0,        244,        244,        1,    38016, 0xb6d7fe63
0,        245,        245,        1,    38016, 0xe228050d
0,        246,        246,        1,    38016, 0x09e251ed
0,        247,        247,        1,    38016, 0xcea332d0
0,        248,        248,        1,    38016, 0x048838af
0,        249,        249,        1,    38016, 0x0a625a93
0,        250,        250,        1,    38016, 0x018aa719
0,        251,        251,        1,    38016, 0x630e70a8
0,        252,        252,        1,    38016, 0x93cb4c39
0,        253,        253,        1,    38016, 0x3cdb7cf8
0,        254,        254,        1,    38016, 0x48491fb4
0,        255,        255,        1,    38016, 0x06aa4101
0,        256,        256,        1,    38016, 0x4b402d3e
0,        257,        257,        1,    38016, 0x13cbf927
0,        258,        258,        1,    38016, 0xdc7528b6
0,        259,        259,        1,    38016, 0x652d0576
0,        260,        260,        1,    38016, 0xa3a504d6
0,        261,        261,        1,    38016, 0x5bd33fe4
0,        262,        262,        1,    38016, 0xae11267b
0,        263,        263,        1,    38016, 0xb58b5613
0,        264,        264,        1,    38016, 0x50160d80
0,        265,        265,        1,    38016, 0x4a643ed0
0,        266,        266,        1,    38016, 0xe3983ed6
0,        267,        267,        1,    38016, 0xa1fb3338
0,        268,        268,        1,    38016, 0x48d0286d
0,        269,        269,        1,    38016, 0x67043801
0,        270,        270,        1,    38016, 0x00bafaad
0,        271,        271,        1,    38016, 0xf07de35a
0,        272,        272,        1,    38016, 0x493e4579
0,        273,        273,        1,    38016, 0xa917532b
0,        274,        274,        1,    38016, 0x463fcc89
0,        275,        275,        1,    38016, 0xd47c1b1b
0,        276,        276,        1,    38016, 0x3543c596
0,        277,        277,        1,    38016, 0x65d6cd5b
0,        278,        278,        1,    38016, 0x22cbd5ef
0,        279,        279,        1,    38016, 0x08e0f250
0,        280,        280,        1,    38016, 0x4e4aeb0a
0,        281,        281,        1,    38016, 0x7895e0bd
0,        282,        282,        1,    38016, 0xc11cea95
0,        283,        283,        1,    38016, 0x13b3bcf8
0,        284,        284,        1,    38016, 0xcb312186
0,        285,        285,        1,    38016, 0x791007ca
0,        286,        286,        1,    38016, 0xaa77354f
0,        287,        287,        1,    38016, 0x1dbc2a67
0,        288,        288,        1,    38016, 0x00646a65
0,        289,        289,        1,    38016, 0x19db488d
0,        290,        290,        1,    38016, 0x16c155e5
0,        291,        291,        1,    38016, 0xb760898e
0,        292,        292,        1,    38016, 0xbd6691e8
0,        293,        293,        1,    38016, 0x06829781
0,        294,        294,        1,    38016, 0xcebab8ad
0,        295,        295,        1,    38016, 0xe2f38e79
0,        296,        296,        1,    38016, 0x1e00c08e
0,        297,        297,        1,    38016, 0x86d6c935
0,        298,        298,        1,    38016, 0xaa88dfdc
0,        299,        299,        1,    38016, 0xa9029b45
